<svg fill="#FFFFFF" xmlns="http://www.w3.org/2000/svg"  viewBox="0 0 30 30" width="30px" height="30px"><path d="M 6 4.0039062 C 4.89 4.0039062 4 4.8939062 4 6.0039062 L 4 24.003906 C 4 25.103906 4.89 26.003906 6 26.003906 L 24 26.003906 C 25.11 26.003906 26 25.103906 26 24.003906 L 26 6.0039062 C 26 4.8939063 25.11 4.0039063 24 4.0039062 L 6 4.0039062 z M 9.0097656 10.013672 L 10.349609 10.013672 L 10.349609 11.884766 L 11.359375 11.884766 L 11.359375 10.013672 L 12.699219 10.013672 L 12.699219 15.013672 L 11.359375 15.013672 L 11.359375 13.134766 L 10.349609 13.134766 L 10.349609 15.013672 L 9.0097656 15.013672 L 9.0097656 10.013672 z M 13.119141 10.013672 L 15.300781 10.013672 C 16.230781 10.013672 16.859375 10.573672 16.859375 11.263672 C 16.859375 11.323672 16.859609 11.393125 16.849609 11.453125 C 17.279609 10.603125 18.220781 10.013672 19.300781 10.013672 C 20.790781 10.013672 21.990234 11.133672 21.990234 12.513672 C 21.990234 13.883672 20.790781 15.003906 19.300781 15.003906 C 18.220781 15.003906 17.279609 14.414453 16.849609 13.564453 C 16.849609 13.624453 16.859375 13.693672 16.859375 13.763672 C 16.859375 14.453672 16.230781 15.013672 15.300781 15.013672 L 13.119141 15.013672 L 13.119141 10.013672 z M 14.410156 11.263672 L 14.410156 12.044922 L 15.109375 12.044922 C 15.166875 12.044922 15.222344 12.031875 15.273438 12.011719 C 15.324531 11.991563 15.372734 11.963359 15.412109 11.927734 C 15.451484 11.892109 15.483516 11.849141 15.505859 11.802734 C 15.528203 11.756328 15.539062 11.706797 15.539062 11.654297 C 15.539062 11.601797 15.528203 11.550313 15.505859 11.503906 C 15.483516 11.4575 15.451484 11.416484 15.412109 11.380859 C 15.372734 11.345234 15.324531 11.315078 15.273438 11.294922 C 15.222344 11.274766 15.166875 11.263672 15.109375 11.263672 L 14.410156 11.263672 z M 19.300781 11.263672 C 18.644531 11.263672 18.109512 11.685547 17.986328 12.259766 C 17.96873 12.341797 17.960938 12.426172 17.960938 12.513672 C 17.960938 13.213672 18.550781 13.763672 19.300781 13.763672 C 20.050781 13.763672 20.640625 13.213672 20.640625 12.513672 C 20.640625 11.813672 20.050781 11.263672 19.300781 11.263672 z M 19.300781 11.923828 C 19.650781 11.923828 19.919922 12.183672 19.919922 12.513672 C 19.919922 12.833672 19.650781 13.09375 19.300781 13.09375 C 18.950781 13.09375 18.669922 12.833672 18.669922 12.513672 C 18.669922 12.431172 18.687031 12.353984 18.71875 12.283203 C 18.813906 12.070859 19.038281 11.923828 19.300781 11.923828 z M 16.640625 12.083984 C 16.480625 12.353984 16.229922 12.513672 15.919922 12.513672 C 16.219922 12.513672 16.480625 12.694609 16.640625 12.974609 C 16.620625 12.824609 16.599609 12.673672 16.599609 12.513672 C 16.599609 12.363672 16.610625 12.223984 16.640625 12.083984 z M 14.410156 12.984375 L 14.410156 13.763672 L 15.109375 13.763672 C 15.166875 13.763672 15.222344 13.751406 15.273438 13.730469 C 15.324531 13.709531 15.372734 13.680781 15.412109 13.644531 C 15.451484 13.608281 15.483516 13.565469 15.505859 13.519531 C 15.528203 13.473594 15.539062 13.423047 15.539062 13.373047 C 15.539062 13.320547 15.528203 13.271016 15.505859 13.224609 C 15.483516 13.178203 15.451484 13.135234 15.412109 13.099609 C 15.372734 13.063984 15.324531 13.035781 15.273438 13.015625 C 15.222344 12.995469 15.166875 12.984375 15.109375 12.984375 L 14.410156 12.984375 z M 15.820312 15.283203 C 16.390313 15.283203 16.910781 15.524063 17.300781 15.914062 L 17.300781 15.794922 C 17.300781 15.564922 17.5 15.373047 17.75 15.373047 L 18.199219 15.373047 L 18.199219 19.933594 L 17.75 19.933594 C 17.5 19.933594 17.300781 19.743906 17.300781 19.503906 L 17.300781 19.384766 C 16.910781 19.774766 16.390313 20.013672 15.820312 20.013672 C 14.610312 20.013672 13.619141 18.954297 13.619141 17.654297 C 13.619141 16.344297 14.610312 15.283203 15.820312 15.283203 z M 18.289062 15.373047 L 19.080078 15.373047 C 19.290078 15.373047 19.479609 15.463047 19.599609 15.623047 L 20.490234 16.794922 C 20.570234 16.904922 20.730781 16.904922 20.800781 16.794922 L 21.699219 15.623047 C 21.819219 15.463047 22.010703 15.373047 22.220703 15.373047 L 23.009766 15.373047 L 21.490234 17.363281 C 21.320234 17.583281 21.320234 17.883516 21.490234 18.103516 L 22.939453 20.013672 L 22.150391 20.013672 C 21.940391 20.013672 21.750859 19.923672 21.630859 19.763672 L 20.800781 18.673828 C 20.730781 18.573828 20.570234 18.573828 20.490234 18.673828 L 19.669922 19.763672 C 19.549922 19.923672 19.360391 20.013672 19.150391 20.013672 L 18.359375 20.013672 L 19.810547 18.103516 C 19.980547 17.883516 19.980547 17.583281 19.810547 17.363281 L 18.289062 15.373047 z M 11.59375 15.400391 C 12.559395 15.430469 13.339844 16.199531 13.339844 17.144531 L 13.339844 20.013672 L 12.890625 20.013672 C 12.640625 20.013672 12.439453 19.823984 12.439453 19.583984 L 12.439453 17.144531 C 12.439453 16.654531 12.029297 16.263672 11.529297 16.263672 C 11.029297 16.263672 10.619141 16.654531 10.619141 17.144531 L 10.619141 20.013672 L 10.169922 20.013672 C 9.9199219 20.013672 9.7207031 19.823984 9.7207031 19.583984 L 9.7207031 17.144531 C 9.7207031 16.654531 9.3203125 16.263672 8.8203125 16.263672 C 8.3203125 16.263672 7.9101563 16.654531 7.9101562 17.144531 L 7.9101562 20.013672 L 7.4609375 20.013672 C 7.2109375 20.013672 7.0097656 19.823984 7.0097656 19.583984 L 7.0097656 17.214844 C 7.0097656 16.364844 7.6009375 15.593594 8.4609375 15.433594 C 9.1409375 15.303594 9.7796875 15.563672 10.179688 16.013672 C 10.429688 15.723672 10.769922 15.503594 11.169922 15.433594 C 11.313672 15.406094 11.455801 15.396094 11.59375 15.400391 z M 15.820312 16.134766 C 15.731562 16.134766 15.644629 16.143828 15.560547 16.164062 C 15.476465 16.184297 15.393984 16.215469 15.316406 16.253906 C 15.238828 16.292344 15.164941 16.337969 15.095703 16.392578 C 15.026465 16.447188 14.963359 16.509375 14.904297 16.578125 C 14.845234 16.646875 14.791191 16.723828 14.744141 16.804688 C 14.69709 16.885547 14.65625 16.971563 14.623047 17.0625 C 14.589844 17.153437 14.564395 17.248672 14.546875 17.347656 C 14.529355 17.446641 14.519531 17.549297 14.519531 17.654297 C 14.519531 17.758047 14.529609 17.859004 14.546875 17.957031 C 14.581406 18.153086 14.648906 18.335352 14.742188 18.496094 C 14.788828 18.576465 14.841641 18.652266 14.900391 18.720703 C 14.959141 18.789141 15.022656 18.849863 15.091797 18.904297 C 15.230078 19.013164 15.387109 19.092383 15.556641 19.132812 C 15.641406 19.153027 15.730313 19.164062 15.820312 19.164062 C 15.910312 19.164062 15.997266 19.153027 16.082031 19.132812 C 16.675391 18.991309 17.119141 18.380547 17.119141 17.654297 C 17.119141 16.814297 16.540312 16.134766 15.820312 16.134766 z"/></svg>