<svg fill="#FFFFFF" xmlns="http://www.w3.org/2000/svg"  viewBox="0 0 50 50" width="50px" height="50px"><path d="M 13 4 C 8.038 4 4 8.037 4 13 L 4 37 C 4 41.963 8.038 46 13 46 L 37 46 C 41.962 46 46 41.963 46 37 L 46 13 C 46 8.037 41.962 4 37 4 L 13 4 z M 13 6 L 37 6 C 40.86 6 44 9.141 44 13 L 44 37 C 44 40.859 40.86 44 37 44 L 13 44 C 9.14 44 6 40.859 6 37 L 6 13 C 6 9.141 9.14 6 13 6 z M 22.943359 11.783203 C 22.393359 11.783203 22.070297 12.051063 22.029297 12.539062 C 22.002297 13.034062 22.291594 13.322437 22.683594 13.398438 C 22.834594 13.425438 22.991578 13.425437 23.142578 13.398438 C 23.500578 13.343437 23.769875 13.054266 23.796875 12.697266 C 23.830875 12.278266 23.638578 11.954078 23.267578 11.830078 C 23.164578 11.796078 23.053359 11.776203 22.943359 11.783203 z M 14.804688 14.083984 C 14.265484 14.082344 13.766984 14.262422 13.302734 14.607422 C 13.261734 14.648422 13.213203 14.683938 13.158203 14.710938 C 13.144203 14.703938 13.132812 14.696453 13.132812 14.689453 C 13.111812 14.620453 13.097172 14.551422 13.076172 14.482422 C 13.021172 14.310422 12.952578 14.248047 12.767578 14.248047 C 12.561578 14.248047 12.348578 14.255047 12.142578 14.248047 C 11.984578 14.241047 11.840469 14.263719 11.730469 14.386719 C 11.730469 16.791719 11.731281 19.203563 11.738281 21.601562 C 11.827281 21.745562 11.965047 21.772625 12.123047 21.765625 C 12.370047 21.758625 12.618234 21.765625 12.865234 21.765625 C 13.298234 21.765625 13.298828 21.765844 13.298828 21.339844 L 13.298828 19.382812 C 13.298828 19.334813 13.276219 19.279281 13.324219 19.238281 C 13.668219 19.506281 14.088484 19.671891 14.521484 19.712891 C 15.126484 19.774891 15.675719 19.623937 16.136719 19.210938 C 16.473719 18.901937 16.720563 18.5025 16.851562 18.0625 C 17.035563 17.5015 17.048 16.930516 17 16.353516 C 16.973 15.996516 16.876422 15.645266 16.732422 15.322266 C 16.450422 14.731266 16.016422 14.297484 15.357422 14.146484 C 15.168422 14.105234 14.984422 14.084531 14.804688 14.083984 z M 28.263672 14.087891 C 28.091922 14.087891 27.920047 14.106125 27.748047 14.140625 C 27.301047 14.222625 26.903391 14.420297 26.525391 14.654297 C 26.477391 14.682297 26.436187 14.730469 26.367188 14.730469 C 26.333188 14.627469 26.313297 14.537406 26.279297 14.441406 C 26.237297 14.325406 26.161109 14.25 26.037109 14.25 L 25.179688 14.25 C 25.097687 14.25 25.013328 14.298859 24.986328 14.380859 C 24.972328 14.435859 24.966797 14.491875 24.966797 14.546875 L 24.966797 19.314453 C 24.966797 19.547453 25.026578 19.617188 25.267578 19.617188 L 26.189453 19.617188 C 26.443453 19.617187 26.498047 19.562594 26.498047 19.308594 L 26.498047 15.644531 C 26.485047 15.589531 26.519219 15.527672 26.574219 15.513672 C 26.946219 15.334672 27.365344 15.252297 27.777344 15.279297 C 28.011344 15.292297 28.209813 15.457406 28.257812 15.691406 C 28.284812 15.807406 28.292969 15.931828 28.292969 16.048828 L 28.292969 19.298828 C 28.292969 19.552828 28.347562 19.615234 28.601562 19.615234 L 29.328125 19.615234 C 29.438125 19.615234 29.541531 19.614422 29.644531 19.607422 C 29.740531 19.607422 29.816406 19.539359 29.816406 19.443359 C 29.830406 19.375359 29.830078 19.313141 29.830078 19.244141 L 29.830078 15.630859 C 29.823078 15.575859 29.857109 15.519859 29.912109 15.505859 C 30.283109 15.333859 30.690703 15.252297 31.095703 15.279297 C 31.315703 15.293297 31.5075 15.44325 31.5625 15.65625 C 31.5965 15.78025 31.610516 15.904156 31.603516 16.035156 L 31.603516 19.216797 C 31.603516 19.292797 31.603188 19.367359 31.617188 19.443359 C 31.631187 19.525359 31.69925 19.594562 31.78125 19.601562 C 31.83625 19.608563 31.892266 19.609375 31.947266 19.609375 L 32.785156 19.609375 C 33.094156 19.609375 33.134766 19.568766 33.134766 19.259766 L 33.134766 15.699219 C 33.134766 15.616219 33.135906 15.542797 33.128906 15.466797 C 33.100906 15.109797 33.003188 14.779719 32.742188 14.511719 C 32.467187 14.223719 32.11075 14.112797 31.71875 14.091797 C 31.17575 14.064797 30.639203 14.188547 30.158203 14.435547 C 29.972203 14.531547 29.795047 14.641141 29.623047 14.744141 C 29.616047 14.730141 29.608188 14.731609 29.617188 14.724609 C 29.603188 14.710609 29.590172 14.696781 29.576172 14.675781 C 29.391172 14.400781 29.102297 14.209625 28.779297 14.140625 C 28.607297 14.106125 28.435422 14.087891 28.263672 14.087891 z M 36.986328 14.134766 C 36.757078 14.112391 36.526875 14.115984 36.296875 14.146484 C 35.210875 14.270484 34.502688 14.86925 34.179688 15.90625 C 33.952688 16.61425 33.981016 17.335781 34.166016 18.050781 C 34.407016 18.964781 35.011781 19.507219 35.925781 19.699219 C 36.447781 19.816219 36.975047 19.794891 37.498047 19.712891 C 37.773047 19.664891 38.049547 19.595187 38.310547 19.492188 C 38.468547 19.430187 38.551922 19.33525 38.544922 19.15625 C 38.537922 18.99125 38.544922 18.819438 38.544922 18.648438 C 38.544922 18.442438 38.461719 18.379734 38.261719 18.427734 C 38.061719 18.475734 37.870875 18.516594 37.671875 18.558594 C 37.245875 18.647594 36.804906 18.647266 36.378906 18.572266 C 35.794906 18.455266 35.417172 17.954938 35.451172 17.335938 C 35.512172 17.342937 35.580578 17.349281 35.642578 17.363281 C 36.157578 17.459281 36.687125 17.466766 37.203125 17.384766 C 37.505125 17.343766 37.7945 17.253375 38.0625 17.109375 C 38.3715 16.930375 38.597359 16.683844 38.693359 16.339844 C 38.934359 15.473844 38.562109 14.599344 37.662109 14.277344 C 37.442109 14.205344 37.215578 14.157141 36.986328 14.134766 z M 21.226562 14.195312 C 20.779563 14.161313 20.333562 14.299219 19.976562 14.574219 C 19.838562 14.683219 19.707984 14.799828 19.583984 14.923828 C 19.555984 14.964828 19.514797 14.991859 19.466797 15.005859 C 19.425797 14.820859 19.384937 14.648516 19.335938 14.478516 C 19.287937 14.306516 19.206344 14.244141 19.027344 14.244141 L 18.367188 14.244141 C 18.051188 14.244141 18.017578 14.279703 18.017578 14.595703 L 18.017578 19.267578 C 18.017578 19.322578 18.016437 19.378594 18.023438 19.433594 C 18.030437 19.523594 18.100453 19.598469 18.189453 19.605469 C 18.237453 19.612469 18.291844 19.611328 18.339844 19.611328 L 19.234375 19.611328 C 19.282375 19.611328 19.336766 19.612469 19.384766 19.605469 C 19.473766 19.605469 19.543781 19.536266 19.550781 19.447266 C 19.557781 19.385266 19.556641 19.329578 19.556641 19.267578 L 19.556641 15.970703 C 19.556641 15.894703 19.556344 15.825016 19.652344 15.791016 C 20.085344 15.647016 20.532187 15.558609 20.992188 15.599609 C 21.088187 15.606609 21.179391 15.612469 21.275391 15.605469 C 21.398391 15.591469 21.447609 15.543922 21.474609 15.419922 C 21.488609 15.323922 21.495281 15.234672 21.488281 15.138672 C 21.488281 14.904672 21.494469 14.663687 21.480469 14.429688 C 21.467469 14.257688 21.405562 14.202312 21.226562 14.195312 z M 22.380859 14.242188 C 22.215859 14.249187 22.153484 14.311563 22.146484 14.476562 L 22.146484 16.916016 C 22.146484 17.700016 22.147625 18.482141 22.140625 19.244141 C 22.140625 19.299141 22.139484 19.355156 22.146484 19.410156 C 22.153484 19.507156 22.236031 19.582844 22.332031 19.589844 C 22.366031 19.596844 22.395688 19.595703 22.429688 19.595703 L 23.384766 19.595703 C 23.425766 19.595703 23.460953 19.596844 23.501953 19.589844 C 23.590953 19.582844 23.659016 19.520641 23.666016 19.431641 C 23.673016 19.355641 23.679688 19.279125 23.679688 19.203125 L 23.679688 14.628906 C 23.679687 14.566906 23.680828 14.511219 23.673828 14.449219 C 23.659828 14.291219 23.611125 14.242188 23.453125 14.242188 C 23.096125 14.235188 22.737859 14.235188 22.380859 14.242188 z M 36.681641 15.191406 C 36.805641 15.198406 36.927922 15.225437 37.044922 15.273438 C 37.223922 15.349438 37.340328 15.515031 37.361328 15.707031 C 37.382328 15.824031 37.374844 15.948453 37.339844 16.064453 C 37.257844 16.311453 37.058359 16.413891 36.818359 16.462891 C 36.674359 16.496891 36.523094 16.510094 36.371094 16.496094 C 36.103094 16.496094 35.828547 16.476547 35.560547 16.435547 C 35.457547 16.422547 35.456703 16.4225 35.470703 16.3125 C 35.491703 16.1475 35.539563 15.988891 35.601562 15.837891 C 35.807563 15.335891 36.241641 15.164406 36.681641 15.191406 z M 14.302734 15.25 C 14.403328 15.251047 14.506375 15.26075 14.609375 15.28125 C 14.898375 15.32225 15.144719 15.507391 15.261719 15.775391 C 15.364719 15.995391 15.427406 16.235563 15.441406 16.476562 C 15.482406 16.915563 15.481422 17.356391 15.357422 17.775391 C 15.309422 17.988391 15.200969 18.179219 15.042969 18.324219 C 14.863969 18.475219 14.643156 18.566406 14.410156 18.566406 C 14.060156 18.587406 13.71525 18.510703 13.40625 18.345703 C 13.33025 18.311703 13.282063 18.236297 13.289062 18.154297 L 13.289062 16.910156 C 13.289062 16.498156 13.296062 16.085828 13.289062 15.673828 C 13.282063 15.577828 13.338734 15.494937 13.427734 15.460938 C 13.711234 15.326688 14.000953 15.246859 14.302734 15.25 z M 18.539062 21.929688 C 18.488063 21.922688 18.436766 21.9295 18.384766 21.9375 C 17.949766 21.9745 17.632703 22.275641 17.595703 22.681641 C 17.551703 23.189641 17.787141 23.543297 18.244141 23.654297 C 18.325141 23.668297 18.405328 23.683594 18.486328 23.683594 C 19.083328 23.698594 19.533609 23.360453 19.474609 22.689453 C 19.460609 22.379453 19.262609 22.114906 18.974609 22.003906 C 18.834609 21.944906 18.686062 21.914687 18.539062 21.929688 z M 24.703125 21.980469 C 24.423125 21.980469 24.371094 22.0325 24.371094 22.3125 L 24.371094 24.701172 C 24.371094 24.753172 24.392469 24.805422 24.355469 24.857422 C 24.289469 24.850422 24.253172 24.804391 24.201172 24.775391 C 23.434172 24.325391 22.630359 24.245094 21.818359 24.621094 C 21.250359 24.886094 20.897922 25.366594 20.669922 25.933594 C 20.448922 26.479594 20.395156 27.054719 20.410156 27.636719 C 20.410156 28.182719 20.535297 28.719078 20.779297 29.205078 C 21.059297 29.743078 21.466641 30.156984 22.056641 30.333984 C 22.860641 30.584984 23.611875 30.459172 24.296875 29.951172 C 24.348875 29.922172 24.377359 29.870469 24.443359 29.855469 C 24.480359 29.936469 24.510391 30.025281 24.525391 30.113281 C 24.554391 30.231281 24.658203 30.3125 24.783203 30.3125 L 24.960938 30.3125 C 25.225938 30.3125 25.483187 30.3195 25.742188 30.3125 C 25.948187 30.3125 26.007625 30.24525 26.015625 30.03125 L 26.015625 22.261719 C 26.008625 22.032719 25.949516 21.980469 25.728516 21.980469 L 24.703125 21.980469 z M 35.96875 24.386719 C 35.733875 24.378469 35.497719 24.393188 35.261719 24.429688 C 34.266719 24.576687 33.551078 25.106781 33.205078 26.050781 C 32.866078 26.950781 32.873891 27.938891 33.212891 28.837891 C 33.507891 29.655891 34.097313 30.173719 34.945312 30.386719 C 35.395313 30.497719 35.866078 30.526938 36.330078 30.460938 C 37.878078 30.276937 38.520047 29.102938 38.623047 28.085938 C 38.623047 28.085938 38.660156 27.780625 38.660156 27.640625 L 38.652344 27.023438 C 38.659344 26.939438 38.630859 26.766766 38.630859 26.759766 C 38.615859 26.619766 38.587781 26.478703 38.550781 26.345703 C 38.277781 25.372703 37.664922 24.730469 36.669922 24.480469 C 36.437422 24.424969 36.203625 24.394969 35.96875 24.386719 z M 29.849609 24.451172 C 28.610609 24.480172 27.667203 25.106703 27.283203 26.345703 C 27.025203 27.163703 27.0625 27.998406 27.3125 28.816406 C 27.5705 29.657406 28.161953 30.165531 29.001953 30.394531 C 29.362953 30.482531 29.738422 30.519859 30.107422 30.505859 C 30.645422 30.498859 31.182406 30.394125 31.691406 30.203125 C 31.905406 30.122125 31.957031 30.048312 31.957031 29.820312 L 31.957031 29.289062 C 31.950031 29.075063 31.860484 29.000734 31.646484 29.052734 C 31.484484 29.096734 31.329969 29.134875 31.167969 29.171875 C 30.673969 29.289875 30.15825 29.310656 29.65625 29.222656 C 29.15525 29.126656 28.815594 28.839891 28.683594 28.337891 C 28.646594 28.190891 28.616562 28.043672 28.601562 27.888672 C 28.638562 27.888672 28.676078 27.887344 28.705078 27.902344 C 29.193078 27.989344 29.687641 28.027234 30.181641 27.990234 C 30.609641 27.961234 31.035922 27.879828 31.419922 27.673828 C 31.810922 27.481828 32.083063 27.119406 32.164062 26.691406 C 32.216062 26.426406 32.217203 26.145859 32.158203 25.880859 C 32.003203 25.216859 31.583219 24.805797 30.949219 24.591797 C 30.595219 24.480797 30.218609 24.436172 29.849609 24.451172 z M 11.416016 24.568359 C 11.268016 24.568359 11.216281 24.642063 11.238281 24.789062 C 11.260281 24.885063 11.291937 24.990125 11.335938 25.078125 C 11.778937 26.243125 12.227922 27.400594 12.669922 28.558594 C 12.853922 29.044594 13.046469 29.538391 13.230469 30.025391 C 13.311469 30.231391 13.442875 30.333172 13.671875 30.326172 C 13.995875 30.319172 14.320531 30.319172 14.644531 30.326172 C 14.807531 30.341172 14.961672 30.238984 15.013672 30.083984 C 15.028672 30.038984 15.051406 29.995172 15.066406 29.951172 C 15.560406 28.668172 16.054828 27.378703 16.548828 26.095703 L 16.990234 24.923828 C 17.086234 24.657828 17.026094 24.576172 16.746094 24.576172 L 15.626953 24.576172 C 15.493953 24.576172 15.367078 24.656063 15.330078 24.789062 L 15.287109 24.923828 C 14.948109 26.066828 14.608531 27.20075 14.269531 28.34375 C 14.224531 28.49075 14.180719 28.632297 14.136719 28.779297 C 14.122719 28.779297 14.114094 28.778484 14.121094 28.771484 C 13.818094 27.746484 13.524656 26.714453 13.222656 25.689453 C 13.133656 25.409453 13.051703 25.121797 12.970703 24.841797 C 12.926703 24.686797 12.846922 24.568359 12.669922 24.568359 C 12.257922 24.568359 11.836016 24.561359 11.416016 24.568359 z M 18.001953 24.576172 C 17.772953 24.576172 17.712078 24.642094 17.705078 24.871094 L 17.705078 29.972656 C 17.705078 30.016656 17.705891 30.069281 17.712891 30.113281 C 17.727891 30.253281 17.794406 30.326172 17.941406 30.326172 C 18.339406 30.333172 18.730906 30.333172 19.128906 30.326172 C 19.276906 30.319172 19.342422 30.252469 19.357422 30.105469 L 19.357422 27.451172 L 19.357422 24.871094 C 19.357422 24.642094 19.2915 24.576172 19.0625 24.576172 L 18.001953 24.576172 z M 29.701172 25.582031 C 29.800734 25.572969 29.904969 25.574687 30.011719 25.585938 C 30.048719 25.585938 30.076281 25.601562 30.113281 25.601562 C 30.629281 25.682562 30.755156 26.094188 30.660156 26.492188 C 30.586156 26.787188 30.343313 26.898219 30.070312 26.949219 C 29.923313 26.978219 29.768281 26.993328 29.613281 26.986328 C 29.311281 26.979328 29.015703 26.957109 28.720703 26.912109 C 28.654703 26.905109 28.626625 26.877547 28.640625 26.810547 C 28.692625 26.522547 28.758547 26.241859 28.935547 26.005859 C 29.140297 25.735109 29.402484 25.609219 29.701172 25.582031 z M 23.117188 25.644531 C 23.508188 25.607531 23.898953 25.68175 24.251953 25.84375 C 24.339953 25.87275 24.391766 25.960641 24.384766 26.056641 C 24.370766 26.514641 24.378906 26.95725 24.378906 27.40625 L 24.378906 28.748047 C 24.393906 28.836047 24.342719 28.919078 24.261719 28.955078 C 23.907719 29.154078 23.502516 29.234781 23.103516 29.175781 C 22.764516 29.138781 22.469453 28.933859 22.314453 28.630859 C 22.196453 28.394859 22.129422 28.142766 22.107422 27.884766 C 22.048422 27.419766 22.085312 26.948047 22.195312 26.498047 C 22.232312 26.373047 22.27775 26.256672 22.34375 26.138672 C 22.49875 25.850672 22.793188 25.666531 23.117188 25.644531 z M 35.675781 25.681641 C 35.815781 25.666641 35.955703 25.665312 36.095703 25.695312 C 36.390703 25.754313 36.634578 25.94675 36.767578 26.21875 C 36.892578 26.47675 36.965469 26.765734 36.980469 27.052734 C 36.987469 27.185734 36.996281 27.316219 36.988281 27.449219 C 37.009281 27.775219 36.972766 28.092531 36.884766 28.394531 C 36.840766 28.549531 36.772734 28.689266 36.677734 28.822266 C 36.515734 29.051266 36.258516 29.198703 35.978516 29.220703 C 35.838516 29.235703 35.698594 29.235078 35.558594 29.205078 C 35.248594 29.146078 34.990234 28.940344 34.865234 28.652344 C 34.754234 28.423344 34.688016 28.174828 34.666016 27.923828 C 34.629016 27.488828 34.621609 27.053 34.724609 26.625 C 34.761609 26.455 34.835828 26.286672 34.923828 26.138672 C 35.085828 25.873672 35.365781 25.703641 35.675781 25.681641 z M 35.675781 32.660156 C 35.256781 32.672156 34.8445 32.712875 34.4375 32.796875 C 33.9105 32.922875 33.413703 33.114641 32.970703 33.431641 C 32.898703 33.473641 32.837063 33.533609 32.789062 33.599609 C 32.747062 33.670609 32.729484 33.742453 32.771484 33.814453 C 32.813484 33.886453 32.886844 33.892719 32.964844 33.886719 L 33.6875 33.796875 C 34.2325 33.724875 34.782984 33.700609 35.333984 33.724609 C 35.531984 33.736609 35.722203 33.772031 35.908203 33.832031 C 36.105203 33.892031 36.238141 34.065531 36.244141 34.269531 C 36.256141 34.389531 36.250281 34.508906 36.238281 34.628906 C 36.196281 34.958906 36.129203 35.282609 36.033203 35.599609 C 35.871203 36.180609 35.668984 36.735828 35.458984 37.298828 C 35.434984 37.358828 35.423969 37.418516 35.417969 37.478516 C 35.423969 37.592516 35.495375 37.653047 35.609375 37.623047 C 35.681375 37.599047 35.746781 37.557906 35.800781 37.503906 C 36.069781 37.252906 36.302141 36.963484 36.494141 36.646484 C 37.021141 35.766484 37.339969 34.779859 37.417969 33.755859 C 37.429969 33.581859 37.422438 33.408234 37.398438 33.240234 C 37.380438 33.097234 37.292297 32.966109 37.154297 32.912109 C 37.053297 32.864109 36.95175 32.828828 36.84375 32.798828 C 36.46075 32.696828 36.070781 32.672156 35.675781 32.660156 z M 12.746094 32.966797 C 12.704219 32.976672 12.664766 32.99875 12.634766 33.03125 C 12.574766 33.09625 12.55775 33.185531 12.59375 33.269531 C 12.61775 33.329531 12.659031 33.389641 12.707031 33.431641 C 12.911031 33.623641 13.108359 33.815953 13.318359 34.001953 C 15.569359 35.994953 18.148891 37.364875 21.087891 38.046875 C 21.937891 38.243875 22.805688 38.375406 23.679688 38.441406 C 24.009687 38.465406 24.338969 38.478094 24.667969 38.496094 C 24.906969 38.490094 25.147719 38.490094 25.386719 38.496094 C 26.338719 38.460094 27.283703 38.357453 28.220703 38.189453 C 29.848703 37.884453 31.429203 37.351516 32.908203 36.603516 C 33.692203 36.208516 34.435047 35.736266 35.123047 35.197266 C 35.207047 35.138266 35.272312 35.060703 35.320312 34.970703 C 35.332313 34.946703 35.345562 34.916578 35.351562 34.892578 C 35.399563 34.694578 35.280031 34.491359 35.082031 34.443359 C 34.962031 34.413359 34.830656 34.430234 34.722656 34.490234 C 33.997656 34.825234 33.256094 35.114234 32.496094 35.365234 C 31.053094 35.844234 29.562687 36.184953 28.054688 36.376953 C 27.408688 36.460953 26.761375 36.521062 26.109375 36.539062 C 24.900375 36.581062 23.685422 36.526953 22.482422 36.376953 C 21.644422 36.268953 20.812328 36.119734 19.986328 35.927734 C 17.525328 35.353734 15.178297 34.383688 13.029297 33.054688 C 12.981297 33.024687 12.927047 33.000563 12.873047 32.976562 C 12.831547 32.958562 12.787969 32.956922 12.746094 32.966797 z"/></svg>