<svg width="46" height="46" fill="currentColor" viewBox="0 0 24 24" xmlns="http://www.w3.org/2000/svg">
  <path d="M21.66 10.373a.62.62 0 0 0 .07-.19l.75-4a1.016 1.016 0 0 0-2-.36l-.37 2a9.22 9.22 0 0 0-16.58.84 1 1 0 0 0 .935 1.376.999.999 0 0 0 .925-.626 7.08 7.08 0 0 1 6.68-4.41 7.17 7.17 0 0 1 6.24 3.58l-1.65-.27a1.013 1.013 0 0 0-.32 2l4.25.71h.16a.929.929 0 0 0 .34-.06.33.33 0 0 0 .1-.06.777.777 0 0 0 .2-.11l.08-.1a1.06 1.06 0 0 0 .14-.16.58.58 0 0 0 .05-.16Z"></path>
  <path d="M19.88 14.07a1 1 0 0 0-1.31.56A7.08 7.08 0 0 1 11.93 19a7.17 7.17 0 0 1-6.24-3.58l1.65.27h.16a1.003 1.003 0 0 0 .16-2L3.41 13a.906.906 0 0 0-.33 0H3a1.15 1.15 0 0 0-.32.14.995.995 0 0 0-.18.18l-.09.1a.837.837 0 0 0-.07.19.44.44 0 0 0-.07.17l-.75 4a1 1 0 0 0 .8 1.22h.18a1 1 0 0 0 1-.82l.37-2a9.22 9.22 0 0 0 16.58-.83 1 1 0 0 0-.57-1.28Z"></path>
</svg>